<?xml version="1.0" standalone="no"?>
<!DOCTYPE svg PUBLIC "-//W3C//DTD SVG 20010904//EN"
 "http://www.w3.org/TR/2001/REC-SVG-20010904/DTD/svg10.dtd">
<svg version="1.0" xmlns="http://www.w3.org/2000/svg"
 width="504.000000pt" height="597.000000pt" viewBox="0 0 504.000000 597.000000"
 preserveAspectRatio="xMidYMid meet">
<metadata>
Created by potrace 1.15, written by Peter Selinger 2001-2017
</metadata>
<g transform="translate(0.000000,597.000000) scale(0.100000,-0.100000)"
fill="#000000" stroke="none">
<path d="M1880 5959 c-523 -32 -972 -119 -1302 -254 -309 -127 -470 -241 -541
-384 -28 -58 -31 -74 -35 -180 -4 -107 16 -264 239 -1961 l242 -1845 7 -285
c9 -323 17 -365 90 -478 184 -286 596 -467 1215 -536 479 -53 1147 -49 1541 9
500 75 906 266 1078 509 71 100 79 131 86 376 7 204 19 304 249 2030 133 998
253 1899 266 2001 27 202 30 286 12 336 -58 157 -303 311 -697 438 -392 127
-769 193 -1280 225 -190 12 -970 11 -1170 -1z"/>
</g>
</svg>
